<svg width="28" height="28" viewBox="0 0 28 28" fill="none" xmlns="http://www.w3.org/2000/svg">
<circle class="bg" cx="14" cy="14" r="12.25" fill="#4F4F4F"></circle>
<path fill-rule="evenodd" clip-rule="evenodd" d="M6.01562 19.2149V8.52588H10.957C12.5442 8.52588 13.8308 9.81254 13.8308 11.3997C13.8308 12.4083 13.5207 13.033 12.3836 13.674C13.7443 14.294 14.1222 15.1533 14.1222 16.3519C14.1222 17.9733 12.6818 19.2149 11.0603 19.2149H6.01562ZM8.10659 10.2953V12.8656H10.5539C10.5539 12.8656 11.7433 12.8656 11.7433 11.5804C11.7433 10.2953 10.5539 10.2953 10.5539 10.2953H8.10659ZM8.10659 17.4046V14.6292H10.7316C11.1554 14.6292 12.0441 14.848 12.0441 16.1605C12.0441 17.1339 11.1691 17.3955 10.7316 17.4046H8.10659Z" fill="white"></path>
<path fill-rule="evenodd" clip-rule="evenodd" d="M18.5929 11.471C17.089 11.471 14.8605 12.5511 14.8605 15.4222C14.8605 17.1705 15.8175 19.4144 18.6886 19.4144C20.9855 19.4144 22.0428 17.7282 22.2843 16.8851H20.1242C20.0148 17.2679 19.591 17.6917 18.6886 17.6917C17.3761 17.6917 16.9113 16.5707 16.8429 16.0101H22.2843V15.4222C22.2843 12.5511 20.0968 11.471 18.5929 11.471ZM18.5929 13.1117C17.3679 13.1117 16.9158 14.1234 16.8429 14.6292H20.1242C20.1242 14.1234 19.8179 13.1117 18.5929 13.1117Z" fill="white"></path>
<path d="M15.9816 9.13316V10.4593H21.1359V9.13316H15.9816Z" fill="white"></path>
</svg>