<svg width="28" height="28" viewBox="0 0 28 28" fill="none" xmlns="http://www.w3.org/2000/svg">
<path class="bg" fill-rule="evenodd" clip-rule="evenodd" d="M26.25 14C26.25 20.7655 20.7655 26.25 14 26.25C7.23451 26.25 1.75 20.7655 1.75 14C1.75 7.23451 7.23451 1.75 14 1.75C20.7655 1.75 26.25 7.23451 26.25 14ZM18.3085 23.5782C16.9939 24.1704 15.5354 24.5 14 24.5C11.4652 24.5 9.14017 23.6018 7.32585 22.1063C9.21326 18.9391 12.249 16.5377 15.8576 15.4753C16.8941 18.0759 17.7182 20.7839 18.3085 23.5782ZM19.9051 22.6834C19.3236 20.0682 18.5439 17.5278 17.5827 15.0786C18.3828 14.9447 19.2048 14.875 20.043 14.875C21.557 14.875 23.0166 15.1022 24.3902 15.5238C23.9581 18.4959 22.2811 21.0645 19.9051 22.6834ZM24.4966 13.7316C23.0789 13.3362 21.585 13.125 20.043 13.125C18.968 13.125 17.9171 13.2275 16.8994 13.4233C16.634 12.8107 16.357 12.2043 16.0688 11.6042C18.3596 10.5874 20.4767 9.25034 22.363 7.65004C23.6536 9.34711 24.4394 11.4489 24.4966 13.7316ZM21.1913 6.34911C19.4204 7.8451 17.4333 9.0926 15.2834 10.0381C14.1485 7.86787 12.864 5.78841 11.4436 3.81339C12.2619 3.60869 13.1183 3.5 14 3.5C16.7826 3.5 19.3124 4.58239 21.1913 6.34911ZM9.71472 4.41141C6.63227 5.7911 4.33656 8.6135 3.68646 12.0197C4.28381 12.0636 4.88728 12.086 5.49611 12.086C8.35554 12.086 11.0994 11.593 13.6477 10.6874C12.4903 8.49374 11.1742 6.39666 9.71472 4.41141ZM3.50267 13.7609C3.50089 13.8404 3.5 13.9201 3.5 14C3.5 16.618 4.45816 19.0123 6.04293 20.8512C8.13053 17.5431 11.3593 15.0255 15.1771 13.8522C14.9414 13.3169 14.6965 12.7864 14.4427 12.2611C11.6522 13.2799 8.63886 13.836 5.49611 13.836C4.82556 13.836 4.16078 13.8106 3.50267 13.7609Z" fill="#4F4F4F"></path>
</svg>